<?xml version="1.0" encoding="UTF-8"?>
<svg xmlns="http://www.w3.org/2000/svg" viewBox="0 0 512 512">
  <defs>
    <linearGradient id="gold" x1="0" y1="0" x2="0" y2="1">
      <stop offset="0" stop-color="#f6dc8a"/>
      <stop offset="0.5" stop-color="#d8b05b"/>
      <stop offset="1" stop-color="#b67a1f"/>
    </linearGradient>
  </defs>

  <!-- Outer glow circle -->
  <circle cx="256" cy="256" r="246" fill="none" stroke="rgba(216,176,91,0.35)" stroke-width="10"/>

  <!-- Ganesh (stylised, wedding icon) -->
  <path fill="url(#gold)" d="
    M256 90
    c-42 0-76 34-76 76
    c0 19 7 36 19 50
    c-41 16-71 56-71 103
    c0 62 50 113 112 113
    h7
    c10 0 18-8 18-18
    c0-9-6-16-14-18
    c-47-10-82-52-82-99
    c0-41 27-76 64-89
    c5 10 12 19 21 26
    c7 6 16 6 22 0
    c6-6 6-16-1-22
    c-13-11-21-27-21-45
    c0-32 26-59 59-59
    c32 0 59 26 59 59
    c0 18-8 34-21 45
    c-7 6-7 16-1 22
    c6 6 16 6 22 0
    c9-7 16-16 21-26
    c37 13 64 48 64 89
    c0 47-35 89-82 99
    c-8 2-14 9-14 18
    c0 10 8 18 18 18
    h7
    c62 0 112-50 112-113
    c0-47-29-87-71-103
    c12-14 19-31 19-50
    c0-42-34-76-76-76
    z

    M256 250
    c-42 0-76 34-76 76
    c0 24 11 45 28 59
    c16 12 37 19 60 19
    c23 0 44-7 60-19
    c17-14 28-35 28-59
    c0-42-34-76-76-76
    z

    M256 286
    c22 0 40 18 40 40
    c0 25-19 46-40 46
    c-21 0-40-21-40-46
    c0-22 18-40 40-40
    z
  "/>

  <!-- Trunk (curve) -->
  <path fill="url(#gold)" d="
    M280 300
    c35 25 34 60 12 86
    c-20 23-56 34-96 14
    c-9-4-12-14-8-22
    c4-9 14-12 23-8
    c27 14 48 6 58-6
    c12-15 9-34-7-46
    c-7-5-9-15-4-22
    c5-8 15-10 22-4
    z
  "/>

  <!-- Tilak -->
  <path fill="#ffefe0" opacity="0.95" d="M256 170c10 16 14 35 14 55h-28c0-20 4-39 14-55z"/>
</svg>
